<svg width="87" height="96" viewBox="0 0 87 96" fill="none" xmlns="http://www.w3.org/2000/svg">
<path d="M65.4606 32.673C66.9597 28.8595 67.7293 24.7984 67.7293 20.7008V16.9534C67.7293 9.1686 61.4186 2.85791 53.6338 2.85791C51.8028 2.85791 50.142 3.58285 48.9211 4.76132C48.0989 5.55499 46.822 5.55499 45.9997 4.76132C44.7791 3.58285 43.1183 2.85791 41.2873 2.85791C29.2977 2.85791 19.5781 12.5775 19.5781 24.5671C19.5781 27.4206 20.1286 30.1452 21.1293 32.6411L65.4606 32.673Z" fill="#A7BDCD"/>
<path d="M33.2633 71.1626C26.5878 72.7619 20.3012 75.3618 14.5716 78.7956C6.88635 83.4019 2.19141 91.7129 2.19141 100.673V103.276H84.5011V100.673C84.5011 91.7129 79.8062 83.4019 72.1209 78.7956C66.3913 75.3616 60.1047 72.7619 53.4292 71.1626H33.2633Z" fill="#BFDBFF"/>
<path d="M69.1217 32.4974C67.8906 31.9747 66.5514 32.0846 65.4606 32.6764C64.9204 28.7373 62.3929 25.4247 58.9211 23.7964C55.9258 22.3916 54.1218 19.3964 54.0463 16.0332C53.9037 22.5023 48.7931 27.7564 42.3171 27.7564C39.5046 27.7564 36.9125 26.7796 34.8918 25.1292C33.447 23.9491 31.6041 23.2378 29.5949 23.2295C24.9346 23.21 21.1224 27.1734 21.1224 31.8338V32.6439C20.0542 32.1077 18.7671 32.0243 17.5808 32.5279C15.4362 33.4382 14.3508 35.9528 15.3461 38.0591C16.6375 40.7926 19.6527 46.045 20.9442 48.7785C21.4539 49.8573 22.6789 50.3893 23.7775 49.9232C25.2938 54.2461 27.4201 58.2826 30.0532 61.9289C30.9952 63.2335 32.0792 64.35 33.2633 65.2805V71.3805C33.2633 76.9492 37.7775 81.4635 43.3462 81.4635C48.9149 81.4635 53.4291 76.9492 53.4291 71.3805V65.2793C54.6146 64.348 55.6997 63.2302 56.6425 61.9242C59.2805 58.27 61.4095 54.2243 62.9258 49.8927C64.0243 50.359 65.2488 49.8271 65.7585 48.748C67.05 46.0145 70.0652 40.7623 71.3566 38.0286C72.3517 35.9221 71.2663 33.4078 69.1217 32.4974Z" fill="#FFDA8F"/>
<path d="M45.4247 103.275C45.4247 104.409 44.5008 105.333 43.3649 105.333C42.2311 105.333 41.3072 104.409 41.3072 103.275C41.3072 102.142 42.2311 101.218 43.3649 101.218C44.5008 101.218 45.4247 102.142 45.4247 103.275ZM0.133789 103.275V100.672C0.133789 86.953 9.4389 79.4714 13.5132 77.0289C19.0467 73.7139 24.9903 71.2075 31.2057 69.5607V66.2475C30.1694 65.3329 29.222 64.2927 28.385 63.1334C25.9202 59.7198 23.9085 56.0187 22.3924 52.1111C21.0049 51.9215 19.7363 51.0386 19.084 49.6572C18.4619 48.3405 14.147 40.3585 13.4859 38.938C11.8098 35.3368 14.0003 31.7789 16.7772 30.6336C17.2396 30.4428 17.7149 30.3019 18.1985 30.2214C17.7489 28.382 17.5217 26.4903 17.5217 24.5669C17.5217 11.4616 28.1835 0.799805 41.2886 0.799805C43.5917 0.799805 45.7729 1.68072 47.4302 3.28021C47.4479 3.29729 47.4757 3.29729 47.4934 3.28021C49.1511 1.68072 51.3321 0.799805 53.6351 0.799805C62.542 0.799805 69.7884 8.04615 69.7884 16.9531V20.7004C69.7884 23.9272 69.3454 27.1035 68.471 30.1823C68.9651 30.2624 69.4583 30.3914 69.9263 30.6031C73.3429 32.1503 74.6772 35.9738 73.2174 38.9076C72.5196 40.3099 68.2416 48.3094 67.6193 49.6267C66.9672 51.0073 65.699 51.8903 64.3125 52.0804C62.7956 55.9975 60.7808 59.7072 58.3111 63.1284C57.473 64.2892 56.5246 65.3308 55.4871 66.2465V69.5605C61.7023 71.2073 67.6461 73.7137 73.1795 77.0287C77.2539 79.4712 86.559 86.9528 86.559 100.672V103.275C86.559 104.412 85.6377 105.333 84.5012 105.333H52.6289C52.6268 105.333 52.6268 105.333 52.6247 105.333C51.4455 105.333 50.4931 104.336 50.5715 103.138C50.6431 102.044 51.601 101.218 52.697 101.218H82.4435C82.4435 92.5286 78.0831 84.766 71.0621 80.56C66.1056 77.5898 60.7975 75.3072 55.2515 73.7598C54.1423 79.3185 49.2266 83.5211 43.3464 83.5211C37.4664 83.5211 32.5504 79.3187 31.4413 73.7598C25.8965 75.3072 20.5869 77.5898 15.6306 80.56C8.60963 84.766 4.24927 92.2897 4.24927 101.218H55.5618C56.7429 101.218 57.694 102.22 57.6127 103.418C57.5384 104.51 56.5812 105.333 55.4871 105.333H2.19153C1.05504 105.333 0.133789 104.412 0.133789 103.275ZM21.6446 24.8822C21.8345 24.6589 24.674 21.1715 29.561 21.1715C31.9986 21.1715 34.3399 22.0209 36.1939 23.5354C37.9018 24.9303 40.0764 25.6985 42.3175 25.6985C47.6209 25.6985 51.8694 21.433 51.9893 15.9878C52.014 14.8694 52.9274 13.9755 54.0462 13.9753C55.1648 13.9751 56.0787 14.8686 56.104 15.987C56.163 18.6147 57.5773 20.8933 59.7954 21.9334C61.9768 22.9566 63.8022 24.5054 65.141 26.4006C65.4949 24.5295 65.6731 22.6253 65.6731 20.7006V16.9531C65.6731 10.3154 60.273 4.91529 53.6353 4.91529C52.404 4.91529 51.2378 5.38631 50.3516 6.24151C48.7313 7.8058 46.1927 7.8056 44.5722 6.24151C43.6861 5.38631 42.52 4.91529 41.2886 4.91529C30.4528 4.91529 21.5409 13.6175 21.6446 24.8822ZM51.3716 68.9878C46.4995 71.2876 40.8705 71.553 35.3212 68.9887V71.3804C35.3212 75.8056 38.9212 79.4056 43.3464 79.4056C47.7716 79.4056 51.3716 75.8056 51.3716 71.3804V68.9878ZM54.9743 60.7196C57.5267 57.184 59.5503 53.3132 60.9839 49.2127C61.2356 48.4931 62.1914 47.4044 63.8111 48.0417C64.5745 46.4154 68.8733 38.4666 69.4964 37.1496C69.9711 36.1465 69.397 34.84 68.3181 34.3914C67.7088 34.1381 67.0347 34.1824 66.4423 34.4851C65.165 35.1376 63.5853 34.3676 63.4223 32.9559C63.0522 29.7514 60.9749 27.0323 58.0477 25.6596C56.5682 24.9657 55.3064 23.948 54.3234 22.7024C53.7042 23.8165 52.9005 24.8188 52.0179 25.7699C48.1123 29.98 39.9476 31.852 33.5904 26.723C31.1104 24.7221 27.4221 24.8425 25.1465 27.1511C23.9085 28.4069 23.1805 30.1021 23.1805 31.8341V32.6442C23.1871 34.1556 21.5808 35.1645 20.1997 34.4834C19.6276 34.2013 18.9737 34.1887 18.3851 34.4225C17.452 34.7929 16.6554 36.001 17.2069 37.1805C17.8242 38.5007 22.2179 46.5685 22.8686 48.0421C24.6806 47.4114 25.5311 48.7057 25.7193 49.2424C27.1544 53.3329 29.1739 57.1962 31.7216 60.7246C34.4615 64.519 38.6986 66.6953 43.3458 66.6949C47.9948 66.6941 52.2334 64.5164 54.9743 60.7196Z" fill="black"/>
</svg>
